<svg width="481" height="460" viewBox="0 0 481 460" fill="none" xmlns="http://www.w3.org/2000/svg">
<path d="M180.151 213.88C202.842 208.111 225.059 196.634 246.096 186.991C278.637 172.074 303.784 160.22 335.707 142.824C377.47 120.066 420.441 95.3201 454.151 61.1018C465.046 50.0432 485.27 25.2103 476.985 7.04627C475.681 4.18727 473.275 2.64199 470.151 2.32405C458.223 1.10982 444.241 3.57802 432.818 5.2685C350.533 17.446 267.868 39.9942 192.374 75.2129C155.373 92.4742 119.346 113.814 89.0403 141.38C76.3513 152.921 63.1548 166.766 58.1514 183.768C53.9717 197.972 58.3133 213.808 67.3181 225.102C77.4843 237.853 92.0269 246.374 106.707 252.991C136.766 266.539 168.95 274.635 200.818 282.546C214.561 285.958 235.656 290.607 250.096 294.768C254.18 295.945 266.376 298.608 269.485 303.88C272.89 309.655 258.676 318.973 256.262 320.768C223.153 345.399 181.807 358.269 143.151 371.102C100.85 385.145 56.3846 401.365 11.8181 406.657C7.9018 407.122 6.02445 406.775 2.70694 404.88C1.56274 404.226 2.15139 401.138 2.15139 400.102C2.15139 393.966 8.13614 391.86 12.9292 388.768C16.282 386.606 56.1601 361.432 57.9292 365.324C60.043 369.975 53.6216 384.979 61.6514 385.824C64.4124 386.115 65.818 384.221 67.1514 381.991C72.051 373.795 76.2612 364.66 80.2625 355.991C81.0675 354.247 82.1514 348.625 82.1514 350.546C82.1514 353.071 82.0804 355.499 81.5958 357.991C80.521 363.519 79.6064 371.399 85.9292 364.991C91.6945 359.147 97.4077 353.654 102.207 346.935C104.561 343.639 105.151 342.781 105.151 347.046C105.151 351.197 104.416 355.416 104.596 359.546C104.805 364.348 110.348 358.05 111.485 356.991C114.701 353.994 118.913 356.474 121.596 351.491C122.154 350.455 122.219 349.848 122.151 351.546C121.768 361.122 117.252 369.612 112.874 377.935C102.728 397.222 91.1883 416.001 84.4847 436.88C82.4074 443.349 81.1514 463.786 81.1514 456.991C81.1514 435.974 88.3554 413.673 96.2069 394.324C99.2012 386.945 103.447 381.2 108.485 375.102C110.793 372.308 112.806 368.645 115.929 366.657C116.537 366.271 117.55 369.858 117.818 370.268C119.354 372.623 122.782 373.293 125.374 373.657C138.572 375.513 145.374 357.52 145.985 346.824C146.052 345.651 145.818 343.684 144.151 343.88C142.58 344.064 142.522 349.547 142.374 350.657C141.246 359.112 147.099 346.47 150.485 344.213C157.693 339.408 156.151 347.573 156.151 352.268C156.151 354.125 155.185 358.984 157.818 359.657C161.125 360.503 163.587 360.028 164.374 356.657C165.069 353.676 166.34 350.802 168.54 348.602C168.981 348.161 170.767 347.809 170.54 347.991C168.275 349.803 167.357 354.477 166.262 356.88C157.775 375.508 143.268 390.18 131.596 406.768C122.527 419.658 113.019 433.632 107.54 448.546C104.989 455.493 111.493 443.762 113.262 442.046C125.008 430.657 137.696 420.361 150.429 410.102C190.496 377.82 231.901 347.127 275.151 319.213C319.714 290.452 366.042 264.801 413.485 241.157C429.941 232.956 447.05 225.804 463.374 217.324C467.351 215.258 466.151 217.334 466.151 220.935C466.151 226.167 462.417 224.88 458.151 224.88" stroke="black" stroke-width="3" stroke-linecap="round"/>
</svg>
